name p02_s_01_labelled_grf.mot
datacolumns 46
datarows 7
range 0.784000 0.787000
endheader
time	1_ground_force_vx	1_ground_force_vy	1_ground_force_vz	1_ground_force_px	1_ground_force_py	1_ground_force_pz	1_ground_torque_x	1_ground_torque_y	1_ground_torque_z	2_ground_force_vx	2_ground_force_vy	2_ground_force_vz	2_ground_force_px	2_ground_force_py	2_ground_force_pz	2_ground_torque_x	2_ground_torque_y	2_ground_torque_z	3_ground_force_vx	3_ground_force_vy	3_ground_force_vz	3_ground_force_px	3_ground_force_py	3_ground_force_pz	3_ground_torque_x	3_ground_torque_y	3_ground_torque_z	4_ground_force_vx	4_ground_force_vy	4_ground_force_vz	4_ground_force_px	4_ground_force_py	4_ground_force_pz	4_ground_torque_x	4_ground_torque_y	4_ground_torque_z	5_ground_force_vx	5_ground_force_vy	5_ground_force_vz	5_ground_force_px	5_ground_force_py	5_ground_force_pz	5_ground_torque_x	5_ground_torque_y	5_ground_torque_z
            0.784000	            0.045058	            0.439326	            0.128591	            1.685507	           -0.014676	            0.536362	           -0.220560	            0.003330	           -0.042136	            0.960722	           -0.642962	           -2.649681	            0.451630	           -0.003066	            0.303270	           -0.119973	           -0.609311	           -0.472395	           -0.121608	            0.469324	            0.184082	           -0.457621	            0.004852	            0.303465	           -0.101752	            0.143363	            0.166881	            0.321136	           -0.255640	            0.111288	           -1.364246	            0.012957	            0.295129	           -0.181078	           -0.133136	            0.087298	           -0.152916	            1.051289	            0.611814	           -2.332725	            0.019529	            0.213469	           -0.008374	            0.093131	            0.094614
            0.784500	            0.171929	            1.073294	           -0.031508	            1.685507	           -0.014676	            0.536362	            0.055323	           -0.063953	            0.186363	            1.161877	           -0.178929	           -2.327018	            0.451630	           -0.003066	            0.303270	            0.025972	           -0.484298	           -0.622536	           -0.189240	            1.562841	           -0.013579	           -0.457621	            0.004852	            0.303465	           -0.056544	            0.039731	            0.216856	            0.042655	           -0.094687	            0.148491	           -1.364246	            0.012957	            0.295129	            0.049440	           -0.080027	           -0.096163	           -0.309310	            1.678124	            0.612715	           -2.332725	            0.019529	            0.213469	           -0.139935	            0.098679	           -0.024442
            0.785000	            0.038148	           -0.192146	            0.129082	            1.685507	           -0.014676	            0.536362	           -0.088891	           -0.071074	            0.400711	            0.552717	           -0.025503	           -0.770471	            0.451630	           -0.003066	            0.303270	           -0.437984	           -0.305329	           -0.498407	            0.067795	           -0.312595	           -0.135841	           -0.457621	            0.004852	            0.303465	           -0.048927	            0.089966	            0.124907	            0.042176	           -0.252587	           -0.129478	           -1.364246	            0.012957	            0.295129	           -0.031403	           -0.059087	           -0.041344	           -0.233900	            0.265467	            0.531732	           -2.332725	            0.019529	            0.213469	            0.029201	            0.076605	           -0.186065
            0.785500	            0.212584	            1.071552	           -0.072455	            1.685507	           -0.014676	            0.536362	           -0.006918	            0.077212	            0.410624	            0.182432	           -0.028937	            0.746681	            0.451630	           -0.003066	            0.303270	           -0.408496	           -0.084357	            0.027389	            0.037187	            0.468318	            0.064409	           -0.457621	            0.004852	            0.303465	            0.166446	           -0.012600	           -0.041158	            0.366774	            0.376080	            0.069251	           -1.364246	            0.012957	            0.295129	            0.155411	            0.019679	           -0.240836	           -0.154298	            0.580231	            0.531948	           -2.332725	            0.019529	            0.213469	            0.095230	            0.165368	            0.039006
            0.786000	            0.231553	           -0.827217	            0.048377	            1.685507	           -0.014676	            0.536362	           -0.150060	           -0.039297	            0.303303	           -0.735179	           -0.332218	            0.175791	            0.451630	           -0.003066	            0.303270	           -0.170495	            0.104128	           -0.250393	           -0.054223	           -0.625651	            0.262501	           -0.457621	            0.004852	            0.303465	           -0.272923	            0.056509	           -0.210603	            0.084784	            0.063682	           -0.089457	           -1.364246	            0.012957	            0.295129	           -0.032193	           -0.076757	           -0.701217	           -0.312751	            0.582617	            0.372324	           -2.332725	            0.019529	            0.213469	           -0.090926	            0.131423	            0.138860
            0.786500	            0.096739	            1.545864	           -0.031761	            1.685507	           -0.014676	            0.536362	           -0.176518	           -0.033466	           -0.095604	           -0.875007	            1.557813	           -0.620279	            0.451630	           -0.003066	            0.303270	            0.016605	            0.195456	           -0.479363	           -0.078973	            0.780623	           -0.134241	           -0.457621	            0.004852	            0.303465	            0.112901	            0.010728	           -0.377601	            0.008746	            0.537221	           -0.012115	           -1.364246	            0.012957	            0.295129	           -0.005364	           -0.059990	           -0.209791	           -0.119219	           -1.301226	            0.490846	           -2.332725	            0.019529	            0.213469	            0.031412	            0.166075	           -0.069894
            0.787000	            0.174276	            1.229443	            0.128789	            1.685507	           -0.014676	            0.536362	           -0.120230	            0.016348	            0.020148	           -0.520419	            1.398345	           -0.060050	            0.451630	           -0.003066	            0.303270	            0.148573	            0.443765	           -0.728780	           -0.085908	            0.155898	           -0.095198	           -0.457621	            0.004852	            0.303465	            0.109783	            0.002736	           -0.596034	           -0.160919	           -0.565839	            0.029050	           -1.364246	            0.012957	            0.295129	            0.157084	           -0.075335	           -0.164140	           -0.274746	           -0.360447	            0.531816	           -2.332725	            0.019529	            0.213469	            0.029038	            0.057899	           -0.079447
